<?xml version="1.0" encoding="utf-8"?>
<!-- Generator: Adobe Illustrator 25.0.0, SVG Export Plug-In . SVG Version: 6.00 Build 0)  -->
<svg version="1.1" id="Layer_1" xmlns="http://www.w3.org/2000/svg" xmlns:xlink="http://www.w3.org/1999/xlink" x="0px" y="0px"
	 viewBox="0 0 1350.23 403.59" style="enable-background:new 0 0 1350.23 403.59;" xml:space="preserve">
<style type="text/css">
	.st0{clip-path:url(#SVGID_2_);}
	.st1{fill:url(#SVGID_3_);}
	.st2{opacity:0.19;fill:url(#SVGID_4_);}
	.st3{fill:#F4F4F6;}
	.st4{fill:url(#SVGID_5_);}
	.st5{fill:url(#SVGID_6_);}
	.st6{opacity:0.77;fill:url(#SVGID_7_);}
	.st7{fill:url(#SVGID_8_);}
	.st8{fill:url(#SVGID_9_);}
	.st9{fill:url(#SVGID_10_);}
	.st10{fill:url(#SVGID_11_);}
	.st11{fill:url(#SVGID_12_);}
	.st12{fill:#7968AD;}
	.st13{fill:#4E4FA0;}
	.st14{fill:#414098;}
	.st15{fill:#2F3191;}
	.st16{fill:#2F2F84;}
	.st17{fill:#4D4FA0;}
</style>
<g>
	<defs>
		<rect id="SVGID_1_" x="-4.77" y="-1.41" width="1366" height="404"/>
	</defs>
	<clipPath id="SVGID_2_">
		<use xlink:href="#SVGID_1_"  style="overflow:visible;"/>
	</clipPath>
	<g class="st0">
		<linearGradient id="SVGID_3_" gradientUnits="userSpaceOnUse" x1="-11.5444" y1="63.6379" x2="1425.2329" y2="63.6379">
			<stop  offset="0" style="stop-color:#9791C6"/>
			<stop  offset="0.9983" style="stop-color:#E7CAE1"/>
		</linearGradient>
		<rect x="-11.54" y="-301.93" class="st1" width="1436.78" height="731.14"/>
		
			<linearGradient id="SVGID_4_" gradientUnits="userSpaceOnUse" x1="2713.3381" y1="2814.1255" x2="3467.6519" y2="2814.1255" gradientTransform="matrix(4.3102 -1.096536e-03 9.281984e-04 3.6462 -12490.0195 -10195.6309)">
			<stop  offset="0" style="stop-color:#FFF6F5"/>
			<stop  offset="0.9785" style="stop-color:#F7B9CF"/>
		</linearGradient>
		<path class="st2" d="M-546.98-261.43c734.49-114.16,1982.8-94.47,2019.74,35.62c36.95,130.1-1777.15,36.59-1302.49,195.49
			s1307.81-14.79,1255.1,86.42S608,128.59,940.25,200.78s1376.35-94.32,1513.5,64.67C2590.9,424.43-114.35,555.23,17.44,367.26
			s569.49-151.93,363.82-209.71S-1385.43-131.11-546.98-261.43z"/>
		<ellipse class="st3" cx="590.56" cy="333.81" rx="45.67" ry="45.84"/>
		<g>
			<linearGradient id="SVGID_5_" gradientUnits="userSpaceOnUse" x1="-83.9103" y1="270.7416" x2="731.2329" y2="270.7416">
				<stop  offset="0" style="stop-color:#E8B6D4"/>
				<stop  offset="0.9876" style="stop-color:#C7B5D8"/>
			</linearGradient>
			<path class="st4" d="M341.89,320.91c-17.3-23.32-90.85-49.3-90.85-49.3l103.21,10.66l-83.43-76.62c0,0-85.9-8.66-90.85-24.65
				c-2.4-7.76-19.2-37.64-35.87-66.34c-8.94,0.84-29.85,8.61-37.05,16.37c-8.65,9.33-145.23,77.28-145.23,77.28l-45.73,213.86
				l568.04,4.64l-102.07-39.95C382.06,386.87,359.2,344.23,341.89,320.91z"/>
			<linearGradient id="SVGID_6_" gradientUnits="userSpaceOnUse" x1="-83.9103" y1="271.7134" x2="731.2329" y2="271.7134">
				<stop  offset="0" style="stop-color:#E8B6D4"/>
				<stop  offset="0.9876" style="stop-color:#C7B5D8"/>
			</linearGradient>
			<path class="st5" d="M376.36,225.44c-11.88-14.86-142-62.42-159.31-63.76c-17.3-1.33-65.51-43.97-69.22-46.64
				c-0.62-0.45-1.94-0.55-3.73-0.38c16.67,28.7,33.47,58.58,35.87,66.34c4.94,15.99,90.85,24.65,90.85,24.65l83.43,76.62
				l-103.21-10.66c0,0,73.54,25.98,90.85,49.3c17.3,23.32,40.17,65.96,40.17,65.96l102.07,39.95l247.1,2.02
				C731.23,428.84,388.24,240.3,376.36,225.44z"/>
			<linearGradient id="SVGID_7_" gradientUnits="userSpaceOnUse" x1="108.906" y1="271.7134" x2="957.4213" y2="271.7134">
				<stop  offset="0" style="stop-color:#FFF6F5"/>
				<stop  offset="0.9785" style="stop-color:#CEB4D6"/>
			</linearGradient>
			<path class="st6" d="M376.36,225.44c-11.88-14.86-142-62.42-159.31-63.76c-17.3-1.33-65.51-43.97-69.22-46.64
				c-0.62-0.45-1.94-0.55-3.73-0.38c16.67,28.7,33.47,58.58,35.87,66.34c4.94,15.99,90.85,24.65,90.85,24.65l83.43,76.62
				l-103.21-10.66c0,0,73.54,25.98,90.85,49.3c17.3,23.32,40.17,65.96,40.17,65.96l102.07,39.95l247.1,2.02
				C731.23,428.84,388.24,240.3,376.36,225.44z"/>
		</g>
		<g>
			<linearGradient id="SVGID_8_" gradientUnits="userSpaceOnUse" x1="474.7325" y1="308.161" x2="1655.2329" y2="308.161">
				<stop  offset="0" style="stop-color:#FFF6F5"/>
				<stop  offset="0.9785" style="stop-color:#F7B9CF"/>
			</linearGradient>
			<path class="st7" d="M916.28,328.4c8.28-5.75-123.43,28.77-96.93,15.11c19.27-9.93,234.56-135.75,350.77-203.77
				c-35.1,11.2-97.83,37.64-118.43,48.11c-27.79,14.11-213.28,78.69-249.59,84.68c-36.31,5.99-231.27,108.39-269.38,109.11
				l-57.99,94.96h139.71c18.54-15.15,35.28-28.76,41.71-33.81C673.55,429.11,908,334.15,916.28,328.4z"/>
			<linearGradient id="SVGID_9_" gradientUnits="userSpaceOnUse" x1="474.7325" y1="467.3088" x2="1655.2329" y2="467.3088">
				<stop  offset="0" style="stop-color:#FFF6F5"/>
				<stop  offset="0.9785" style="stop-color:#F7B9CF"/>
			</linearGradient>
			<path class="st8" d="M1655.23,476.59c0,0-8.66-6.91-23.33-18.56l19.95,18.56H1655.23z"/>
			<linearGradient id="SVGID_10_" gradientUnits="userSpaceOnUse" x1="474.7325" y1="390.5671" x2="1655.2329" y2="390.5671">
				<stop  offset="0" style="stop-color:#FFF6F5"/>
				<stop  offset="0.9785" style="stop-color:#F7B9CF"/>
			</linearGradient>
			<path class="st9" d="M1065.4,418.32l-0.83-38.13c0,0,57.16-84.89,38.94-74.81c-13.46,7.44-122.69,115.3-178.9,171.21h69.33
				l10.16-31.65L1065.4,418.32z"/>
			<linearGradient id="SVGID_11_" gradientUnits="userSpaceOnUse" x1="474.7325" y1="305.5866" x2="1655.2329" y2="305.5866">
				<stop  offset="0" style="stop-color:#FFF6F5"/>
				<stop  offset="0.9785" style="stop-color:#F7B9CF"/>
			</linearGradient>
			<path class="st10" d="M1631.91,458.03c-78.19-62.09-327.18-258.85-345.32-261.28c-21.54-2.88-82.84-57.55-92.78-61.87
				c-2.57-1.12-11.45,0.94-23.68,4.85c-116.21,68.02-331.5,193.84-350.77,203.77c-26.51,13.67,105.21-20.86,96.93-15.11
				c-8.28,5.75-242.73,100.71-260.12,114.38c-6.43,5.05-23.17,18.66-41.71,33.81H924.6c56.22-55.91,165.44-163.77,178.9-171.21
				c18.23-10.07-38.94,74.81-38.94,74.81l0.83,38.13l-61.3,26.62l-10.16,31.65h657.92L1631.91,458.03z"/>
			<linearGradient id="SVGID_12_" gradientUnits="userSpaceOnUse" x1="545.9767" y1="305.5866" x2="1685.8845" y2="305.5866">
				<stop  offset="0" style="stop-color:#FCE1E0"/>
				<stop  offset="0.9785" style="stop-color:#F6AFC3"/>
			</linearGradient>
			<path class="st11" d="M1631.91,458.03c-78.19-62.09-327.18-258.85-345.32-261.28c-21.54-2.88-82.84-57.55-92.78-61.87
				c-2.57-1.12-11.45,0.94-23.68,4.85c-116.21,68.02-331.5,193.84-350.77,203.77c-26.51,13.67,105.21-20.86,96.93-15.11
				c-8.28,5.75-242.73,100.71-260.12,114.38c-6.43,5.05-23.17,18.66-41.71,33.81H924.6c56.22-55.91,165.44-163.77,178.9-171.21
				c18.23-10.07-38.94,74.81-38.94,74.81l0.83,38.13l-61.3,26.62l-10.16,31.65h657.92L1631.91,458.03z"/>
		</g>
		<path class="st12" d="M699.88,235.6c0,0,11.92,3.6,15.27,10.37c0,0,1.42-3.11,6.4-6.66c4.98-3.54,9.48-5.92,9.48-5.92
			s-9.24,2.6-15.28,7.71C715.75,241.09,711.03,236.42,699.88,235.6z"/>
		<path class="st12" d="M745.96,259.72c0,0,8.96-1.49,12.04,1.06c0,0,0.72-2.01,3.97-5.23c3.25-3.23,6.26-5.72,6.26-5.72
			s-6.42,3.94-10.28,8.27C757.96,258.1,754.09,257.01,745.96,259.72z"/>
		<g>
			<g>
				<g>
					<path class="st12" d="M117.95,334.57c0.28,0.54-4.8,20.51-4.8,21.32c0,0.81,2.54-0.54,2.54,0c0,0.54-1.69,0.54-2.54,1.62
						c-0.85,1.08-1.41,5.67-1.41,5.67s2.82-2.7,3.11-2.16c0.28,0.54-3.39,2.97-3.67,3.78c-0.28,0.81-1.41,8.1-1.41,8.1
						s4.24-3.24,4.24-2.43c0,0.81-3.95,3.24-4.24,4.05c-0.28,0.81-1.69,8.1-1.69,8.1h24.57c0,0-2.82-10.26-3.39-10.53
						c-0.56-0.27-4.66-4.18-4.94-4.45c-0.28-0.27,2.54,0.81,3.67,1.89c1.13,1.08-1.69-11.07-2.26-11.07s-3.39-2.16-3.39-2.16
						s1.69,0.54,3.11,1.08C126.84,357.92,117.95,334.57,117.95,334.57z"/>
					<polygon class="st12" points="118.73,345.93 118.73,382.61 119.7,382.71 					"/>
				</g>
			</g>
			<g>
				<g>
					<path class="st12" d="M104.22,340.89c0,0.25-3.93,18.64-3.7,19.14c0.23,0.5,2.08-0.75,1.85,0c-0.23,0.75-1.62,1.24-1.85,1.49
						c-0.23,0.25-1.16,5.22-1.16,5.22s2.77-2.73,2.77-1.99c0,0.75-3.47,3.98-3.47,4.23s-0.69,6.21-0.69,6.96
						c0,0.75,3.47-2.98,3.47-2.49c0,0.5-3.23,2.73-3.47,3.73c-0.23,0.99-1.16,5.22-1.16,5.72c0,0.5,18.02-0.99,18.02-0.99
						s-1.39-7.71-2.31-8.2s-3.47-1.49-3.47-1.99c0-0.5,3.7,1.24,3.7,1.24s-1.39-8.7-2.08-9.45c-0.69-0.75-3.23-1.49-3.47-2.24
						c-0.23-0.75,3.47,1.49,3.47,1.49L104.22,340.89z"/>
					<polygon class="st12" points="105.01,352.09 105.01,383.24 105.98,383.33 					"/>
				</g>
			</g>
			<g>
				<g>
					<path class="st12" d="M147.88,381.04c0.18-0.23,1.05,0.13,2.22,0.85c0.74-2.8,0.97-5.57,0.85-8.24
						c-1.64-1.4-2.69-2.63-2.46-2.93c0.18-0.23,1.08,0.14,2.3,0.89c-0.27-2.38-0.79-4.66-1.47-6.79c-2.1-1.67-3.55-3.25-3.28-3.6
						c0.18-0.23,1.1,0.15,2.32,0.91c-2.45-6.23-5.84-10.65-6.5-11.47c-0.02-0.02-0.04-0.05-0.05-0.07
						c-0.02,0.02-0.04,0.05-0.06,0.08c-0.66,0.83-4.13,5.34-6.59,11.69c1.4-0.49,2.41-0.67,2.54-0.4c0.17,0.35-1.23,1.37-3.26,2.41
						c-0.77,2.34-1.38,4.89-1.65,7.56c1.36-0.47,2.33-0.64,2.46-0.37c0.15,0.32-0.93,1.15-2.59,2.06c-0.12,2.63,0.1,5.35,0.81,8.11
						c1.15-0.37,1.95-0.48,2.06-0.24c0.12,0.25-0.56,0.85-1.69,1.54c0.42,1.35,0.97,2.71,1.65,4.07h12.61
						c0.63-1.24,1.14-2.49,1.55-3.74C148.42,382.23,147.68,381.3,147.88,381.04z"/>
				</g>
			</g>
		</g>
		<g>
			<g>
				<g>
					<path class="st12" d="M105.49,311.55c0.28,0.54-4.8,20.51-4.8,21.32s2.54-0.54,2.54,0s-1.69,0.54-2.54,1.62
						c-0.85,1.08-1.41,5.67-1.41,5.67s2.82-2.7,3.11-2.16c0.28,0.54-3.39,2.97-3.67,3.78c-0.28,0.81-1.41,8.1-1.41,8.1
						s4.24-3.24,4.24-2.43c0,0.81-3.95,3.24-4.24,4.05c-0.28,0.81-1.69,8.1-1.69,8.1h24.57c0,0-2.82-10.26-3.39-10.53
						c-0.56-0.27-4.66-4.18-4.94-4.45c-0.28-0.27,2.54,0.81,3.67,1.89c1.13,1.08-1.69-11.07-2.26-11.07c-0.56,0-3.39-2.16-3.39-2.16
						s1.69,0.54,3.11,1.08S105.49,311.55,105.49,311.55z"/>
					<polygon class="st12" points="106.28,322.91 106.28,359.58 107.25,359.69 					"/>
				</g>
			</g>
			<g>
				<g>
					<path class="st12" d="M91.76,317.86c0,0.25-3.93,18.64-3.7,19.14c0.23,0.5,2.08-0.75,1.85,0c-0.23,0.75-1.62,1.24-1.85,1.49
						c-0.23,0.25-1.16,5.22-1.16,5.22s2.77-2.73,2.77-1.99c0,0.75-3.47,3.98-3.47,4.23s-0.69,6.21-0.69,6.96
						c0,0.75,3.47-2.98,3.47-2.49s-3.23,2.73-3.47,3.73c-0.23,0.99-1.16,5.22-1.16,5.72s18.02-0.99,18.02-0.99s-1.39-7.71-2.31-8.2
						c-0.92-0.5-3.47-1.49-3.47-1.99s3.7,1.24,3.7,1.24s-1.39-8.7-2.08-9.45c-0.69-0.75-3.23-1.49-3.47-2.24
						c-0.23-0.75,3.47,1.49,3.47,1.49L91.76,317.86z"/>
					<polygon class="st12" points="92.56,329.06 92.56,360.22 93.53,360.31 					"/>
				</g>
			</g>
			<g>
				<g>
					<path class="st12" d="M135.43,358.02c0.18-0.23,1.05,0.13,2.22,0.85c0.74-2.8,0.97-5.57,0.85-8.24
						c-1.64-1.4-2.69-2.63-2.46-2.93c0.18-0.23,1.08,0.14,2.3,0.89c-0.27-2.38-0.79-4.66-1.47-6.79c-2.1-1.67-3.55-3.25-3.28-3.6
						c0.18-0.23,1.1,0.15,2.32,0.91c-2.45-6.23-5.84-10.65-6.5-11.47c-0.02-0.02-0.04-0.05-0.05-0.07
						c-0.02,0.02-0.04,0.05-0.06,0.08c-0.66,0.83-4.13,5.34-6.59,11.69c1.4-0.49,2.41-0.67,2.54-0.4c0.17,0.35-1.23,1.37-3.26,2.41
						c-0.77,2.34-1.38,4.89-1.65,7.56c1.36-0.47,2.33-0.64,2.46-0.37c0.15,0.32-0.93,1.15-2.59,2.06c-0.12,2.63,0.1,5.35,0.81,8.11
						c1.15-0.37,1.95-0.48,2.06-0.24c0.12,0.25-0.56,0.85-1.69,1.54c0.42,1.35,0.97,2.71,1.65,4.07h12.61
						c0.63-1.24,1.14-2.49,1.55-3.74C135.97,359.21,135.23,358.27,135.43,358.02z"/>
				</g>
			</g>
		</g>
		<g>
			<g>
				<g>
					<path class="st12" d="M137.61,328.65c0.28,0.54-4.8,20.51-4.8,21.32s2.54-0.54,2.54,0s-1.69,0.54-2.54,1.62
						c-0.85,1.08-1.41,5.67-1.41,5.67s2.82-2.7,3.11-2.16s-3.39,2.97-3.67,3.78c-0.28,0.81-1.41,8.1-1.41,8.1s4.24-3.24,4.24-2.43
						s-3.95,3.24-4.24,4.05c-0.28,0.81-1.69,8.1-1.69,8.1h24.57c0,0-2.82-10.26-3.39-10.53c-0.56-0.27-4.66-4.18-4.94-4.45
						c-0.28-0.27,2.54,0.81,3.67,1.89c1.13,1.08-1.69-11.07-2.26-11.07c-0.56,0-3.39-2.16-3.39-2.16s1.69,0.54,3.11,1.08
						S137.61,328.65,137.61,328.65z"/>
					<polygon class="st12" points="138.39,340.01 138.39,376.68 139.36,376.79 					"/>
				</g>
			</g>
			<g>
				<g>
					<path class="st12" d="M123.88,334.97c0,0.25-3.93,18.64-3.7,19.14c0.23,0.5,2.08-0.75,1.85,0c-0.23,0.75-1.62,1.24-1.85,1.49
						c-0.23,0.25-1.16,5.22-1.16,5.22s2.77-2.73,2.77-1.99c0,0.75-3.47,3.98-3.47,4.23c0,0.25-0.69,6.21-0.69,6.96
						c0,0.75,3.47-2.98,3.47-2.49c0,0.5-3.23,2.73-3.47,3.73c-0.23,0.99-1.16,5.22-1.16,5.72s18.02-0.99,18.02-0.99
						s-1.39-7.71-2.31-8.2c-0.92-0.5-3.47-1.49-3.47-1.99s3.7,1.24,3.7,1.24s-1.39-8.7-2.08-9.45s-3.23-1.49-3.47-2.24
						c-0.23-0.75,3.47,1.49,3.47,1.49L123.88,334.97z"/>
					<polygon class="st12" points="124.67,346.17 124.67,377.32 125.64,377.41 					"/>
				</g>
			</g>
			<g>
				<g>
					<path class="st12" d="M167.55,375.12c0.18-0.23,1.05,0.13,2.22,0.85c0.74-2.8,0.97-5.57,0.85-8.24
						c-1.64-1.4-2.69-2.63-2.46-2.93c0.18-0.23,1.08,0.14,2.3,0.89c-0.27-2.38-0.79-4.66-1.47-6.79c-2.1-1.67-3.55-3.25-3.28-3.6
						c0.18-0.23,1.1,0.15,2.32,0.91c-2.45-6.23-5.84-10.65-6.5-11.47c-0.02-0.02-0.04-0.05-0.05-0.07
						c-0.02,0.02-0.04,0.05-0.06,0.08c-0.66,0.83-4.13,5.34-6.59,11.69c1.4-0.49,2.41-0.67,2.54-0.4c0.17,0.35-1.23,1.37-3.26,2.41
						c-0.77,2.34-1.38,4.89-1.65,7.56c1.36-0.47,2.33-0.64,2.46-0.37c0.15,0.32-0.93,1.15-2.59,2.06c-0.12,2.63,0.1,5.35,0.81,8.11
						c1.15-0.37,1.95-0.48,2.06-0.24c0.12,0.25-0.56,0.85-1.69,1.54c0.42,1.35,0.97,2.71,1.65,4.07h12.61
						c0.63-1.24,1.14-2.49,1.55-3.74C168.08,376.31,167.34,375.38,167.55,375.12z"/>
				</g>
			</g>
		</g>
		<g>
			<g>
				<g>
					<path class="st12" d="M1000.05,287.21c0.28,0.54-4.8,20.51-4.8,21.32s2.54-0.54,2.54,0s-1.69,0.54-2.54,1.62
						c-0.85,1.08-1.41,5.67-1.41,5.67s2.82-2.7,3.11-2.16c0.28,0.54-3.39,2.97-3.67,3.78s-1.41,8.1-1.41,8.1s4.24-3.24,4.24-2.43
						s-3.95,3.24-4.24,4.05s-1.69,8.1-1.69,8.1h24.57c0,0-2.82-10.26-3.39-10.53c-0.56-0.27-4.66-4.18-4.94-4.45
						s2.54,0.81,3.67,1.89c1.13,1.08-1.69-11.07-2.26-11.07s-3.39-2.16-3.39-2.16s1.69,0.54,3.11,1.08
						C1008.95,310.55,1000.05,287.21,1000.05,287.21z"/>
					<polygon class="st12" points="1000.84,298.57 1000.84,335.24 1001.81,335.35 					"/>
				</g>
			</g>
			<g>
				<g>
					<path class="st12" d="M986.32,293.52c0,0.25-3.93,18.64-3.7,19.14c0.23,0.5,2.08-0.75,1.85,0c-0.23,0.75-1.62,1.24-1.85,1.49
						s-1.16,5.22-1.16,5.22s2.77-2.73,2.77-1.99c0,0.75-3.47,3.98-3.47,4.23s-0.69,6.21-0.69,6.96c0,0.75,3.47-2.98,3.47-2.49
						c0,0.5-3.23,2.73-3.47,3.73s-1.16,5.22-1.16,5.72c0,0.5,18.02-0.99,18.02-0.99s-1.39-7.71-2.31-8.2
						c-0.92-0.5-3.47-1.49-3.47-1.99c0-0.5,3.7,1.24,3.7,1.24s-1.39-8.7-2.08-9.45c-0.69-0.75-3.23-1.49-3.47-2.24
						c-0.23-0.75,3.47,1.49,3.47,1.49L986.32,293.52z"/>
					<polygon class="st12" points="987.12,304.72 987.12,335.88 988.09,335.97 					"/>
				</g>
			</g>
			<g>
				<g>
					<path class="st12" d="M1029.99,333.68c0.18-0.23,1.05,0.13,2.22,0.85c0.74-2.8,0.97-5.57,0.85-8.24
						c-1.64-1.4-2.69-2.63-2.46-2.93c0.18-0.23,1.08,0.14,2.3,0.89c-0.27-2.38-0.79-4.66-1.47-6.79c-2.1-1.67-3.55-3.25-3.28-3.6
						c0.18-0.23,1.1,0.15,2.32,0.91c-2.45-6.23-5.84-10.65-6.5-11.47c-0.02-0.02-0.04-0.05-0.05-0.07
						c-0.02,0.02-0.04,0.05-0.06,0.08c-0.66,0.83-4.13,5.34-6.59,11.69c1.4-0.49,2.41-0.67,2.54-0.4c0.17,0.35-1.23,1.37-3.26,2.41
						c-0.77,2.34-1.38,4.89-1.65,7.56c1.36-0.47,2.33-0.64,2.46-0.37c0.15,0.32-0.93,1.15-2.59,2.06c-0.12,2.63,0.1,5.35,0.81,8.11
						c1.15-0.37,1.95-0.48,2.06-0.24c0.12,0.25-0.56,0.85-1.69,1.54c0.42,1.35,0.97,2.71,1.65,4.07h12.61
						c0.63-1.24,1.14-2.49,1.55-3.74C1030.53,334.86,1029.79,333.93,1029.99,333.68z"/>
				</g>
			</g>
		</g>
		<g>
			<g>
				<g>
					<path class="st12" d="M1041.34,279.97c0.28,0.54-4.8,20.51-4.8,21.32s2.54-0.54,2.54,0s-1.69,0.54-2.54,1.62
						c-0.85,1.08-1.41,5.67-1.41,5.67s2.82-2.7,3.11-2.16s-3.39,2.97-3.67,3.78c-0.28,0.81-1.41,8.1-1.41,8.1s4.24-3.24,4.24-2.43
						s-3.95,3.24-4.24,4.05s-1.69,8.1-1.69,8.1h24.57c0,0-2.82-10.26-3.39-10.53c-0.56-0.27-4.66-4.18-4.94-4.45
						c-0.28-0.27,2.54,0.81,3.67,1.89c1.13,1.08-1.69-11.07-2.26-11.07s-3.39-2.16-3.39-2.16s1.69,0.54,3.11,1.08
						S1041.34,279.97,1041.34,279.97z"/>
					<polygon class="st12" points="1042.13,291.33 1042.13,328 1043.1,328.11 					"/>
				</g>
			</g>
			<g>
				<g>
					<path class="st12" d="M1027.61,286.29c0,0.25-3.93,18.64-3.7,19.14c0.23,0.5,2.08-0.75,1.85,0c-0.23,0.75-1.62,1.24-1.85,1.49
						c-0.23,0.25-1.16,5.22-1.16,5.22s2.77-2.73,2.77-1.99c0,0.75-3.47,3.98-3.47,4.23c0,0.25-0.69,6.21-0.69,6.96
						c0,0.75,3.47-2.98,3.47-2.49c0,0.5-3.23,2.73-3.47,3.73c-0.23,0.99-1.16,5.22-1.16,5.72s18.02-0.99,18.02-0.99
						s-1.39-7.71-2.31-8.2c-0.92-0.5-3.47-1.49-3.47-1.99s3.7,1.24,3.7,1.24s-1.39-8.7-2.08-9.45c-0.69-0.75-3.23-1.49-3.47-2.24
						c-0.23-0.75,3.47,1.49,3.47,1.49L1027.61,286.29z"/>
					<polygon class="st12" points="1028.41,297.49 1028.41,328.64 1029.37,328.73 					"/>
				</g>
			</g>
			<g>
				<g>
					<path class="st12" d="M1071.28,326.44c0.18-0.23,1.05,0.13,2.22,0.85c0.74-2.8,0.97-5.57,0.85-8.24
						c-1.64-1.4-2.69-2.63-2.46-2.93c0.18-0.23,1.08,0.14,2.3,0.89c-0.27-2.38-0.79-4.66-1.47-6.79c-2.1-1.67-3.55-3.25-3.28-3.6
						c0.18-0.23,1.1,0.15,2.32,0.91c-2.45-6.23-5.84-10.65-6.5-11.47c-0.02-0.02-0.04-0.05-0.05-0.07
						c-0.02,0.02-0.04,0.05-0.06,0.08c-0.66,0.83-4.13,5.34-6.59,11.69c1.4-0.49,2.41-0.67,2.54-0.4c0.17,0.35-1.23,1.37-3.26,2.41
						c-0.77,2.34-1.38,4.89-1.65,7.56c1.36-0.47,2.33-0.64,2.46-0.37c0.15,0.32-0.93,1.15-2.59,2.06c-0.12,2.63,0.1,5.35,0.81,8.11
						c1.15-0.37,1.95-0.48,2.06-0.24c0.12,0.25-0.56,0.85-1.69,1.54c0.42,1.35,0.97,2.71,1.65,4.07h12.61
						c0.63-1.24,1.14-2.49,1.55-3.74C1071.82,327.63,1071.08,326.7,1071.28,326.44z"/>
				</g>
			</g>
		</g>
		<g>
			<g>
				<polygon class="st12" points="-40.22,404.91 296.75,404.91 624.23,406.1 -40.22,237.76 				"/>
			</g>
			<g>
				<g>
					<g>
						<path class="st12" d="M342.02,334.61c0.12-0.21,0.68,0.11,1.44,0.77c0.48-2.57,0.63-5.1,0.55-7.55
							c-1.06-1.28-1.74-2.4-1.59-2.68c0.12-0.21,0.7,0.13,1.49,0.82c-0.17-2.18-0.51-4.27-0.95-6.22c-1.36-1.53-2.3-2.98-2.12-3.3
							c0.12-0.21,0.71,0.13,1.5,0.83c-1.59-5.71-3.78-9.75-4.2-10.5c-0.01-0.02-0.02-0.04-0.03-0.06c-0.01,0.02-0.02,0.04-0.04,0.07
							c-0.43,0.76-2.67,4.89-4.26,10.71c0.91-0.45,1.56-0.62,1.64-0.37c0.11,0.32-0.8,1.25-2.11,2.21c-0.5,2.15-0.89,4.48-1.07,6.92
							c0.88-0.43,1.51-0.59,1.59-0.34c0.1,0.29-0.6,1.05-1.67,1.89c-0.08,2.41,0.06,4.9,0.52,7.43c0.74-0.34,1.26-0.44,1.33-0.22
							c0.08,0.23-0.36,0.77-1.09,1.41c0.27,1.24,0.63,2.49,1.07,3.73h8.16c0.41-1.14,0.74-2.28,1-3.42
							C342.36,335.7,341.89,334.85,342.02,334.61z"/>
					</g>
				</g>
				<g>
					<g>
						<g>
							<path class="st12" d="M362.59,302.89c0.3,0.49-5.12,18.79-5.12,19.53c0,0.74,2.71-0.49,2.71,0c0,0.49-1.81,0.49-2.71,1.48
								c-0.9,0.99-1.5,5.19-1.5,5.19s3.01-2.47,3.31-1.98s-3.61,2.72-3.91,3.46c-0.3,0.74-1.5,7.42-1.5,7.42s4.51-2.97,4.51-2.22
								c0,0.74-4.21,2.97-4.51,3.71c-0.3,0.74-1.81,7.42-1.81,7.42h26.19c0,0-3.01-9.39-3.61-9.64c-0.6-0.25-4.97-3.83-5.27-4.08
								c-0.3-0.25,2.71,0.74,3.91,1.73c1.2,0.99-1.81-10.14-2.41-10.14c-0.6,0-3.61-1.98-3.61-1.98s1.81,0.49,3.31,0.99
								S362.59,302.89,362.59,302.89z"/>
							<polygon class="st12" points="363.42,313.3 363.42,346.89 364.46,346.98 							"/>
						</g>
					</g>
					<g>
						<g>
							<path class="st12" d="M347.96,308.68c0,0.23-4.18,17.08-3.94,17.53c0.25,0.46,2.22-0.68,1.97,0
								c-0.25,0.68-1.72,1.14-1.97,1.37c-0.25,0.23-1.23,4.78-1.23,4.78s2.95-2.5,2.95-1.82c0,0.68-3.69,3.64-3.69,3.87
								s-0.74,5.69-0.74,6.38c0,0.68,3.69-2.73,3.69-2.28s-3.45,2.5-3.69,3.42c-0.25,0.91-1.23,4.78-1.23,5.24s19.2-0.91,19.2-0.91
								s-1.48-7.06-2.46-7.51c-0.98-0.46-3.69-1.37-3.69-1.82c0-0.46,3.94,1.14,3.94,1.14s-1.48-7.97-2.22-8.65
								c-0.74-0.68-3.45-1.37-3.69-2.05c-0.25-0.68,3.69,1.37,3.69,1.37L347.96,308.68z"/>
							<polygon class="st12" points="348.81,318.93 348.81,347.47 349.84,347.55 							"/>
						</g>
					</g>
					<g>
						<g>
							<path class="st12" d="M394.49,345.46c0.19-0.21,1.11,0.11,2.37,0.77c0.79-2.57,1.03-5.1,0.9-7.55
								c-1.75-1.28-2.87-2.4-2.62-2.68c0.19-0.21,1.16,0.13,2.45,0.82c-0.28-2.18-0.85-4.27-1.56-6.22
								c-2.24-1.53-3.78-2.98-3.49-3.3c0.2-0.21,1.17,0.13,2.47,0.83c-2.61-5.71-6.23-9.75-6.93-10.5
								c-0.02-0.02-0.04-0.04-0.05-0.06c-0.02,0.02-0.04,0.04-0.07,0.07c-0.71,0.76-4.4,4.89-7.02,10.71
								c1.5-0.45,2.57-0.62,2.71-0.37c0.18,0.32-1.31,1.25-3.47,2.21c-0.82,2.15-1.47,4.48-1.76,6.92c1.45-0.43,2.49-0.59,2.62-0.34
								c0.16,0.29-0.99,1.05-2.76,1.89c-0.13,2.41,0.1,4.9,0.86,7.43c1.22-0.34,2.07-0.44,2.19-0.22c0.13,0.23-0.59,0.77-1.8,1.41
								c0.45,1.24,1.03,2.49,1.76,3.73h13.44c0.67-1.14,1.22-2.28,1.65-3.42C395.06,346.54,394.27,345.69,394.49,345.46z"/>
						</g>
					</g>
				</g>
				<g>
					<g>
						<g>
							<path class="st12" d="M387.03,318.56c0.3,0.49-5.12,18.79-5.12,19.53c0,0.74,2.71-0.49,2.71,0s-1.81,0.49-2.71,1.48
								c-0.9,0.99-1.5,5.19-1.5,5.19s3.01-2.47,3.31-1.98c0.3,0.49-3.61,2.72-3.91,3.46c-0.3,0.74-1.5,7.42-1.5,7.42
								s4.51-2.97,4.51-2.22s-4.21,2.97-4.51,3.71c-0.3,0.74-1.81,7.42-1.81,7.42h26.19c0,0-3.01-9.39-3.61-9.64
								s-4.97-3.83-5.27-4.08c-0.3-0.25,2.71,0.74,3.91,1.73c1.2,0.99-1.81-10.14-2.41-10.14s-3.61-1.98-3.61-1.98
								s1.81,0.49,3.31,0.99S387.03,318.56,387.03,318.56z"/>
							<polygon class="st12" points="387.86,328.96 387.86,362.55 388.9,362.65 							"/>
						</g>
					</g>
					<g>
						<g>
							<path class="st12" d="M372.4,324.34c0,0.23-4.18,17.08-3.94,17.53c0.25,0.46,2.22-0.68,1.97,0
								c-0.25,0.68-1.72,1.14-1.97,1.37s-1.23,4.78-1.23,4.78s2.95-2.5,2.95-1.82c0,0.68-3.69,3.64-3.69,3.87s-0.74,5.69-0.74,6.38
								s3.69-2.73,3.69-2.28c0,0.46-3.45,2.5-3.69,3.42s-1.23,4.78-1.23,5.24c0,0.46,19.2-0.91,19.2-0.91s-1.48-7.06-2.46-7.51
								c-0.98-0.46-3.69-1.37-3.69-1.82c0-0.46,3.94,1.14,3.94,1.14s-1.48-7.97-2.22-8.65c-0.74-0.68-3.45-1.37-3.69-2.05
								c-0.25-0.68,3.69,1.37,3.69,1.37L372.4,324.34z"/>
							<polygon class="st12" points="373.25,334.6 373.25,363.14 374.28,363.22 							"/>
						</g>
					</g>
					<g>
						<g>
							<path class="st12" d="M418.93,361.12c0.19-0.21,1.11,0.11,2.37,0.77c0.79-2.57,1.03-5.1,0.9-7.55
								c-1.75-1.28-2.87-2.4-2.62-2.68c0.19-0.21,1.16,0.13,2.45,0.82c-0.28-2.18-0.85-4.27-1.56-6.22
								c-2.24-1.53-3.78-2.98-3.49-3.3c0.2-0.21,1.17,0.13,2.47,0.83c-2.61-5.71-6.23-9.75-6.93-10.5
								c-0.02-0.02-0.04-0.04-0.05-0.06c-0.02,0.02-0.04,0.04-0.07,0.07c-0.71,0.76-4.4,4.89-7.02,10.71
								c1.5-0.45,2.57-0.62,2.71-0.37c0.18,0.32-1.31,1.25-3.47,2.21c-0.82,2.15-1.47,4.48-1.76,6.92c1.45-0.43,2.49-0.59,2.62-0.34
								c0.16,0.29-0.99,1.05-2.76,1.89c-0.13,2.41,0.1,4.9,0.86,7.43c1.22-0.34,2.07-0.44,2.19-0.22c0.13,0.23-0.59,0.77-1.8,1.41
								c0.45,1.24,1.03,2.49,1.76,3.73h13.44c0.67-1.14,1.22-2.28,1.65-3.42C419.5,362.21,418.72,361.36,418.93,361.12z"/>
						</g>
					</g>
				</g>
				<g>
					<g>
						<g>
							<path class="st12" d="M166.36,258.3c0.3,0.49-5.12,18.79-5.12,19.53c0,0.74,2.71-0.49,2.71,0c0,0.49-1.81,0.49-2.71,1.48
								c-0.9,0.99-1.5,5.19-1.5,5.19s3.01-2.47,3.31-1.98c0.3,0.49-3.61,2.72-3.91,3.46s-1.5,7.42-1.5,7.42s4.51-2.97,4.51-2.22
								c0,0.74-4.21,2.97-4.51,3.71c-0.3,0.74-1.81,7.42-1.81,7.42h26.19c0,0-3.01-9.39-3.61-9.64c-0.6-0.25-4.97-3.83-5.27-4.08
								c-0.3-0.25,2.71,0.74,3.91,1.73c1.2,0.99-1.81-10.14-2.41-10.14c-0.6,0-3.61-1.98-3.61-1.98s1.81,0.49,3.31,0.99
								C175.84,279.69,166.36,258.3,166.36,258.3z"/>
							<polygon class="st12" points="167.2,268.71 167.2,302.3 168.23,302.39 							"/>
						</g>
					</g>
					<g>
						<g>
							<path class="st12" d="M151.73,264.09c0,0.23-4.18,17.08-3.94,17.53c0.25,0.46,2.22-0.68,1.97,0
								c-0.25,0.68-1.72,1.14-1.97,1.37s-1.23,4.78-1.23,4.78s2.95-2.5,2.95-1.82c0,0.68-3.69,3.64-3.69,3.87s-0.74,5.69-0.74,6.38
								s3.69-2.73,3.69-2.28s-3.45,2.5-3.69,3.42s-1.23,4.78-1.23,5.24s19.2-0.91,19.2-0.91s-1.48-7.06-2.46-7.51
								c-0.98-0.46-3.69-1.37-3.69-1.82c0-0.46,3.94,1.14,3.94,1.14s-1.48-7.97-2.22-8.65c-0.74-0.68-3.45-1.37-3.69-2.05
								c-0.25-0.68,3.69,1.37,3.69,1.37L151.73,264.09z"/>
							<polygon class="st12" points="152.58,274.34 152.58,302.88 153.61,302.96 							"/>
						</g>
					</g>
					<g>
						<g>
							<path class="st12" d="M198.26,300.87c0.19-0.21,1.11,0.11,2.37,0.77c0.79-2.57,1.03-5.1,0.9-7.55
								c-1.75-1.28-2.87-2.4-2.62-2.68c0.19-0.21,1.16,0.13,2.45,0.82c-0.28-2.18-0.85-4.27-1.56-6.22
								c-2.24-1.53-3.78-2.98-3.49-3.3c0.2-0.21,1.17,0.13,2.47,0.83c-2.61-5.71-6.23-9.75-6.93-10.5
								c-0.02-0.02-0.04-0.04-0.05-0.06c-0.02,0.02-0.04,0.04-0.07,0.07c-0.71,0.76-4.4,4.89-7.02,10.71
								c1.5-0.45,2.57-0.62,2.71-0.37c0.18,0.32-1.31,1.25-3.47,2.21c-0.82,2.15-1.47,4.48-1.76,6.92c1.45-0.43,2.49-0.59,2.62-0.34
								c0.16,0.29-0.99,1.05-2.76,1.89c-0.13,2.41,0.1,4.9,0.86,7.43c1.22-0.34,2.07-0.44,2.19-0.22c0.13,0.23-0.59,0.77-1.8,1.41
								c0.45,1.24,1.03,2.49,1.76,3.73h13.44c0.67-1.14,1.22-2.28,1.65-3.42C198.83,301.95,198.05,301.1,198.26,300.87z"/>
						</g>
					</g>
				</g>
				<g>
					<g>
						<g>
							<path class="st12" d="M194.99,263.73c0.3,0.49-5.12,18.79-5.12,19.53c0,0.74,2.71-0.49,2.71,0s-1.81,0.49-2.71,1.48
								c-0.9,0.99-1.5,5.19-1.5,5.19s3.01-2.47,3.31-1.98c0.3,0.49-3.61,2.72-3.91,3.46c-0.3,0.74-1.5,7.42-1.5,7.42
								s4.51-2.97,4.51-2.22c0,0.74-4.21,2.97-4.51,3.71c-0.3,0.74-1.81,7.42-1.81,7.42h26.19c0,0-3.01-9.39-3.61-9.64
								c-0.6-0.25-4.97-3.83-5.27-4.08c-0.3-0.25,2.71,0.74,3.91,1.73c1.2,0.99-1.81-10.14-2.41-10.14c-0.6,0-3.61-1.98-3.61-1.98
								s1.81,0.49,3.31,0.99C204.47,285.11,194.99,263.73,194.99,263.73z"/>
							<polygon class="st12" points="195.83,274.13 195.83,307.72 196.86,307.82 							"/>
						</g>
					</g>
					<g>
						<g>
							<path class="st12" d="M180.36,269.51c0,0.23-4.18,17.08-3.94,17.53c0.25,0.46,2.22-0.68,1.97,0
								c-0.25,0.68-1.72,1.14-1.97,1.37c-0.25,0.23-1.23,4.78-1.23,4.78s2.95-2.5,2.95-1.82c0,0.68-3.69,3.64-3.69,3.87
								s-0.74,5.69-0.74,6.38c0,0.68,3.69-2.73,3.69-2.28c0,0.46-3.45,2.5-3.69,3.42s-1.23,4.78-1.23,5.24
								c0,0.46,19.2-0.91,19.2-0.91s-1.48-7.06-2.46-7.51c-0.98-0.46-3.69-1.37-3.69-1.82s3.94,1.14,3.94,1.14s-1.48-7.97-2.22-8.65
								s-3.45-1.37-3.69-2.05c-0.25-0.68,3.69,1.37,3.69,1.37L180.36,269.51z"/>
							<polygon class="st12" points="181.21,279.77 181.21,308.3 182.24,308.39 							"/>
						</g>
					</g>
					<g>
						<g>
							<path class="st12" d="M226.89,306.29c0.19-0.21,1.11,0.11,2.37,0.77c0.79-2.57,1.03-5.1,0.9-7.55
								c-1.75-1.28-2.87-2.4-2.62-2.68c0.19-0.21,1.16,0.13,2.45,0.82c-0.28-2.18-0.85-4.27-1.56-6.22
								c-2.24-1.53-3.78-2.98-3.49-3.3c0.2-0.21,1.17,0.13,2.47,0.83c-2.61-5.71-6.23-9.75-6.93-10.5
								c-0.02-0.02-0.04-0.04-0.05-0.06c-0.02,0.02-0.04,0.04-0.07,0.07c-0.71,0.76-4.4,4.89-7.02,10.71
								c1.5-0.45,2.57-0.62,2.71-0.37c0.18,0.32-1.31,1.25-3.47,2.21c-0.82,2.15-1.47,4.48-1.76,6.92c1.45-0.43,2.49-0.59,2.62-0.34
								c0.16,0.29-0.99,1.05-2.76,1.89c-0.13,2.41,0.1,4.9,0.86,7.43c1.22-0.34,2.07-0.44,2.19-0.22c0.13,0.23-0.59,0.77-1.8,1.41
								c0.45,1.24,1.03,2.49,1.76,3.73h13.44c0.67-1.14,1.22-2.28,1.65-3.42C227.47,307.38,226.68,306.52,226.89,306.29z"/>
						</g>
					</g>
				</g>
				<g>
					<g>
						<g>
							<path class="st12" d="M219.43,271.56c0.3,0.49-5.12,18.79-5.12,19.53c0,0.74,2.71-0.49,2.71,0c0,0.49-1.81,0.49-2.71,1.48
								c-0.9,0.99-1.5,5.19-1.5,5.19s3.01-2.47,3.31-1.98c0.3,0.49-3.61,2.72-3.91,3.46c-0.3,0.74-1.5,7.42-1.5,7.42
								s4.51-2.97,4.51-2.22c0,0.74-4.21,2.97-4.51,3.71c-0.3,0.74-1.81,7.42-1.81,7.42h26.19c0,0-3.01-9.39-3.61-9.64
								c-0.6-0.25-4.97-3.83-5.27-4.08c-0.3-0.25,2.71,0.74,3.91,1.73s-1.81-10.14-2.41-10.14c-0.6,0-3.61-1.98-3.61-1.98
								s1.81,0.49,3.31,0.99C228.91,292.94,219.43,271.56,219.43,271.56z"/>
							<polygon class="st12" points="220.27,281.96 220.27,315.55 221.3,315.65 							"/>
						</g>
					</g>
					<g>
						<g>
							<path class="st12" d="M204.8,277.34c0,0.23-4.18,17.08-3.94,17.53c0.25,0.46,2.22-0.68,1.97,0s-1.72,1.14-1.97,1.37
								c-0.25,0.23-1.23,4.78-1.23,4.78s2.95-2.5,2.95-1.82s-3.69,3.64-3.69,3.87c0,0.23-0.74,5.69-0.74,6.38
								c0,0.68,3.69-2.73,3.69-2.28c0,0.46-3.45,2.5-3.69,3.42c-0.25,0.91-1.23,4.78-1.23,5.24c0,0.46,19.2-0.91,19.2-0.91
								s-1.48-7.06-2.46-7.51c-0.98-0.46-3.69-1.37-3.69-1.82s3.94,1.14,3.94,1.14s-1.48-7.97-2.22-8.65
								c-0.74-0.68-3.45-1.37-3.69-2.05c-0.25-0.68,3.69,1.37,3.69,1.37L204.8,277.34z"/>
							<polygon class="st12" points="205.65,287.6 205.65,316.14 206.68,316.22 							"/>
						</g>
					</g>
					<g>
						<g>
							<path class="st12" d="M251.34,314.12c0.19-0.21,1.11,0.11,2.37,0.77c0.79-2.57,1.03-5.1,0.9-7.55
								c-1.75-1.28-2.87-2.4-2.62-2.68c0.19-0.21,1.16,0.13,2.45,0.82c-0.28-2.18-0.85-4.27-1.56-6.22
								c-2.24-1.53-3.78-2.98-3.49-3.3c0.2-0.21,1.17,0.13,2.47,0.83c-2.61-5.71-6.23-9.75-6.93-10.5
								c-0.02-0.02-0.04-0.04-0.05-0.06c-0.02,0.02-0.04,0.04-0.07,0.07c-0.71,0.76-4.4,4.89-7.02,10.71
								c1.5-0.45,2.57-0.62,2.71-0.37c0.18,0.32-1.31,1.25-3.47,2.21c-0.82,2.15-1.47,4.48-1.76,6.92c1.45-0.43,2.49-0.59,2.62-0.34
								c0.16,0.29-0.99,1.05-2.76,1.89c-0.13,2.41,0.1,4.9,0.86,7.43c1.22-0.34,2.07-0.44,2.19-0.22c0.13,0.23-0.59,0.77-1.8,1.41
								c0.45,1.24,1.03,2.49,1.76,3.73h13.44c0.67-1.14,1.22-2.28,1.65-3.42C251.91,315.21,251.12,314.36,251.34,314.12z"/>
						</g>
					</g>
				</g>
			</g>
			<g>
				<g>
					<polygon class="st12" points="1383.23,404.9 954.09,404.9 537.04,406.07 1383.23,239.42 					"/>
				</g>
				<g>
					<g>
						<g>
							<path class="st12" d="M1070.28,258.93c0,0.31-4.53,22.9-4.26,23.51s2.4-0.92,2.13,0c-0.27,0.92-1.86,1.53-2.13,1.83
								c-0.27,0.31-1.33,6.41-1.33,6.41s3.19-3.36,3.19-2.44c0,0.92-3.99,4.88-3.99,5.19c0,0.31-0.8,7.63-0.8,8.55
								c0,0.92,3.99-3.66,3.99-3.05s-3.73,3.36-3.99,4.58s-1.33,6.41-1.33,7.02s20.77-1.22,20.77-1.22s-1.6-9.46-2.66-10.07
								s-3.99-1.83-3.99-2.44s4.26,1.53,4.26,1.53s-1.6-10.68-2.4-11.6c-0.8-0.92-3.73-1.83-3.99-2.75
								c-0.27-0.92,3.99,1.83,3.99,1.83L1070.28,258.93z"/>
							<polygon class="st12" points="1071.2,272.68 1071.2,310.94 1072.31,311.05 							"/>
						</g>
					</g>
					<g>
						<g>
							<path class="st12" d="M1111.39,246.93c0,0.34-6.7,25.26-6.3,25.93c0.39,0.67,3.55-1.01,3.15,0
								c-0.39,1.01-2.76,1.68-3.15,2.02c-0.39,0.34-1.97,7.07-1.97,7.07s4.73-3.7,4.73-2.69c0,1.01-5.91,5.39-5.91,5.73
								s-1.18,8.42-1.18,9.43s5.91-4.04,5.91-3.37c0,0.67-5.52,3.7-5.91,5.05c-0.39,1.35-1.97,7.07-1.97,7.75
								c0,0.67,30.73-1.35,30.73-1.35s-2.36-10.44-3.94-11.11c-1.58-0.67-5.91-2.02-5.91-2.69s6.3,1.68,6.3,1.68
								s-2.36-11.79-3.55-12.8c-1.18-1.01-5.52-2.02-5.91-3.03c-0.39-1.01,5.91,2.02,5.91,2.02L1111.39,246.93z"/>
							<polygon class="st12" points="1112.75,262.1 1112.75,304.3 1114.4,304.43 							"/>
						</g>
					</g>
					<g>
						<g>
							<path class="st12" d="M1131.04,249.94c0,0.34-6.7,25.26-6.3,25.93c0.39,0.67,3.55-1.01,3.15,0
								c-0.39,1.01-2.76,1.68-3.15,2.02c-0.39,0.34-1.97,7.07-1.97,7.07s4.73-3.7,4.73-2.69c0,1.01-5.91,5.39-5.91,5.73
								c0,0.34-1.18,8.42-1.18,9.43c0,1.01,5.91-4.04,5.91-3.37s-5.52,3.7-5.91,5.05c-0.39,1.35-1.97,7.07-1.97,7.75
								s30.73-1.35,30.73-1.35s-2.36-10.44-3.94-11.11c-1.58-0.67-5.91-2.02-5.91-2.69s6.3,1.68,6.3,1.68s-2.36-11.79-3.55-12.8
								c-1.18-1.01-5.52-2.02-5.91-3.03c-0.39-1.01,5.91,2.02,5.91,2.02L1131.04,249.94z"/>
							<polygon class="st12" points="1132.4,265.11 1132.4,307.32 1134.04,307.44 							"/>
						</g>
					</g>
					<g>
						<g>
							<path class="st12" d="M1092.19,259.08c0,0.28-4.53,20.72-4.26,21.27s2.4-0.83,2.13,0c-0.27,0.83-1.86,1.38-2.13,1.66
								c-0.27,0.28-1.33,5.8-1.33,5.8s3.19-3.04,3.19-2.21c0,0.83-3.99,4.42-3.99,4.7c0,0.28-0.8,6.91-0.8,7.73
								c0,0.83,3.99-3.31,3.99-2.76s-3.73,3.04-3.99,4.14s-1.33,5.8-1.33,6.35s20.77-1.1,20.77-1.1s-1.6-8.56-2.66-9.11
								c-1.07-0.55-3.99-1.66-3.99-2.21s4.26,1.38,4.26,1.38s-1.6-9.67-2.4-10.5c-0.8-0.83-3.73-1.66-3.99-2.49
								c-0.27-0.83,3.99,1.66,3.99,1.66L1092.19,259.08z"/>
							<polygon class="st12" points="1093.11,271.52 1093.11,306.13 1094.22,306.23 							"/>
						</g>
					</g>
				</g>
				<g>
					<g>
						<g>
							<path class="st12" d="M964.51,284.24c0,0.31-4.53,22.9-4.26,23.51c0.27,0.61,2.4-0.92,2.13,0c-0.27,0.92-1.86,1.53-2.13,1.83
								c-0.27,0.31-1.33,6.41-1.33,6.41s3.2-3.36,3.2-2.44c0,0.92-3.99,4.88-3.99,5.19c0,0.31-0.8,7.63-0.8,8.55
								c0,0.92,3.99-3.66,3.99-3.05s-3.73,3.36-3.99,4.58s-1.33,6.41-1.33,7.02s20.77-1.22,20.77-1.22s-1.6-9.46-2.66-10.07
								s-3.99-1.83-3.99-2.44s4.26,1.53,4.26,1.53s-1.6-10.68-2.4-11.6c-0.8-0.92-3.73-1.83-3.99-2.75
								c-0.27-0.92,3.99,1.83,3.99,1.83L964.51,284.24z"/>
							<polygon class="st12" points="965.42,297.99 965.42,336.25 966.54,336.36 							"/>
						</g>
					</g>
					<g>
						<g>
							<path class="st12" d="M1005.62,272.23c0,0.34-6.7,25.26-6.3,25.93s3.55-1.01,3.15,0s-2.76,1.68-3.15,2.02
								s-1.97,7.07-1.97,7.07s4.73-3.7,4.73-2.69c0,1.01-5.91,5.39-5.91,5.73c0,0.34-1.18,8.42-1.18,9.43
								c0,1.01,5.91-4.04,5.91-3.37s-5.52,3.7-5.91,5.05c-0.39,1.35-1.97,7.07-1.97,7.75s30.73-1.35,30.73-1.35
								s-2.36-10.44-3.94-11.11c-1.58-0.67-5.91-2.02-5.91-2.69s6.3,1.68,6.3,1.68s-2.36-11.79-3.55-12.8
								c-1.18-1.01-5.52-2.02-5.91-3.03c-0.39-1.01,5.91,2.02,5.91,2.02L1005.62,272.23z"/>
							<polygon class="st12" points="1006.98,287.4 1006.98,329.61 1008.62,329.73 							"/>
						</g>
					</g>
					<g>
						<g>
							<path class="st12" d="M1025.26,275.25c0,0.34-6.7,25.26-6.3,25.93c0.39,0.67,3.55-1.01,3.15,0
								c-0.39,1.01-2.76,1.68-3.15,2.02c-0.39,0.34-1.97,7.07-1.97,7.07s4.73-3.7,4.73-2.69c0,1.01-5.91,5.39-5.91,5.73
								s-1.18,8.42-1.18,9.43c0,1.01,5.91-4.04,5.91-3.37s-5.52,3.7-5.91,5.05c-0.39,1.35-1.97,7.07-1.97,7.75
								s30.73-1.35,30.73-1.35s-2.36-10.44-3.94-11.11s-5.91-2.02-5.91-2.69s6.3,1.68,6.3,1.68s-2.36-11.79-3.55-12.8
								s-5.52-2.02-5.91-3.03c-0.39-1.01,5.91,2.02,5.91,2.02L1025.26,275.25z"/>
							<polygon class="st12" points="1026.62,290.42 1026.62,332.63 1028.27,332.75 							"/>
						</g>
					</g>
					<g>
						<g>
							<path class="st12" d="M986.42,284.38c0,0.28-4.53,20.72-4.26,21.27c0.27,0.55,2.4-0.83,2.13,0
								c-0.27,0.83-1.86,1.38-2.13,1.66s-1.33,5.8-1.33,5.8s3.2-3.04,3.2-2.21s-3.99,4.42-3.99,4.7s-0.8,6.91-0.8,7.73
								s3.99-3.31,3.99-2.76c0,0.55-3.73,3.04-3.99,4.14c-0.27,1.1-1.33,5.8-1.33,6.35s20.77-1.1,20.77-1.1s-1.6-8.56-2.66-9.11
								s-3.99-1.66-3.99-2.21s4.26,1.38,4.26,1.38s-1.6-9.67-2.4-10.5c-0.8-0.83-3.73-1.66-3.99-2.49
								c-0.27-0.83,3.99,1.66,3.99,1.66L986.42,284.38z"/>
							<polygon class="st12" points="987.34,296.83 987.34,331.44 988.45,331.54 							"/>
						</g>
					</g>
				</g>
				<g>
					<g>
						<g>
							<path class="st12" d="M1152.48,246.51c0.33,0.49-5.54,18.79-5.54,19.53c0,0.74,2.93-0.49,2.93,0c0,0.49-1.95,0.49-2.93,1.48
								c-0.98,0.99-1.63,5.19-1.63,5.19s3.26-2.47,3.58-1.98c0.33,0.49-3.91,2.72-4.23,3.46c-0.33,0.74-1.63,7.42-1.63,7.42
								s4.88-2.97,4.88-2.22c0,0.74-4.56,2.97-4.88,3.71c-0.33,0.74-1.95,7.42-1.95,7.42h28.33c0,0-3.26-9.39-3.91-9.64
								c-0.65-0.25-5.37-3.83-5.7-4.08c-0.33-0.25,2.93,0.74,4.23,1.73c1.3,0.99-1.95-10.14-2.61-10.14c-0.65,0-3.91-1.98-3.91-1.98
								s1.95,0.49,3.58,0.99C1162.74,267.89,1152.48,246.51,1152.48,246.51z"/>
							<polygon class="st12" points="1153.39,256.92 1153.39,290.5 1154.51,290.6 							"/>
						</g>
					</g>
					<g>
						<g>
							<path class="st12" d="M1136.66,252.3c0,0.23-4.53,17.08-4.26,17.53c0.27,0.46,2.4-0.68,2.13,0
								c-0.27,0.68-1.86,1.14-2.13,1.37c-0.27,0.23-1.33,4.78-1.33,4.78s3.2-2.5,3.2-1.82c0,0.68-4,3.64-4,3.87s-0.8,5.69-0.8,6.38
								s4-2.73,4-2.28s-3.73,2.5-4,3.42s-1.33,4.78-1.33,5.24s20.77-0.91,20.77-0.91s-1.6-7.06-2.66-7.51c-1.07-0.46-4-1.37-4-1.82
								c0-0.46,4.26,1.14,4.26,1.14s-1.6-7.97-2.4-8.65c-0.8-0.68-3.73-1.37-4-2.05c-0.27-0.68,4,1.37,4,1.37L1136.66,252.3z"/>
							<polygon class="st12" points="1137.58,262.55 1137.58,291.09 1138.69,291.17 							"/>
						</g>
					</g>
					<g>
						<g>
							<path class="st12" d="M1187,289.07c0.21-0.21,1.21,0.11,2.56,0.77c0.85-2.57,1.12-5.1,0.98-7.55
								c-1.9-1.28-3.11-2.4-2.83-2.68c0.21-0.21,1.25,0.13,2.65,0.82c-0.31-2.18-0.92-4.27-1.69-6.22c-2.42-1.53-4.09-2.98-3.78-3.3
								c0.21-0.21,1.26,0.13,2.67,0.83c-2.83-5.71-6.74-9.75-7.49-10.5c-0.02-0.02-0.04-0.04-0.06-0.06
								c-0.02,0.02-0.04,0.04-0.07,0.07c-0.77,0.76-4.76,4.89-7.59,10.71c1.62-0.45,2.78-0.62,2.93-0.37
								c0.19,0.32-1.42,1.25-3.76,2.21c-0.89,2.15-1.59,4.48-1.9,6.92c1.57-0.43,2.69-0.59,2.84-0.34c0.17,0.29-1.07,1.05-2.98,1.89
								c-0.14,2.41,0.11,4.9,0.93,7.43c1.32-0.34,2.24-0.44,2.37-0.22c0.14,0.23-0.64,0.77-1.95,1.41c0.49,1.24,1.12,2.49,1.91,3.73
								h14.54c0.73-1.14,1.32-2.28,1.79-3.42C1187.62,290.16,1186.77,289.31,1187,289.07z"/>
						</g>
					</g>
				</g>
				<g>
					<g>
						<g>
							<path class="st12" d="M1175.91,247.71c0.33,0.49-5.54,18.79-5.54,19.53s2.93-0.49,2.93,0s-1.95,0.49-2.93,1.48
								c-0.98,0.99-1.63,5.19-1.63,5.19s3.26-2.47,3.58-1.98c0.33,0.49-3.91,2.72-4.23,3.46c-0.33,0.74-1.63,7.42-1.63,7.42
								s4.88-2.97,4.88-2.22c0,0.74-4.56,2.97-4.88,3.71c-0.33,0.74-1.95,7.42-1.95,7.42h28.33c0,0-3.26-9.39-3.91-9.64
								c-0.65-0.25-5.37-3.83-5.7-4.08c-0.33-0.25,2.93,0.74,4.23,1.73c1.3,0.99-1.95-10.14-2.61-10.14c-0.65,0-3.91-1.98-3.91-1.98
								s1.95,0.49,3.58,0.99C1186.16,269.1,1175.91,247.71,1175.91,247.71z"/>
							<polygon class="st12" points="1176.81,258.12 1176.81,291.71 1177.93,291.81 							"/>
						</g>
					</g>
					<g>
						<g>
							<path class="st12" d="M1160.08,253.5c0,0.23-4.53,17.08-4.26,17.53c0.27,0.46,2.4-0.68,2.13,0
								c-0.27,0.68-1.86,1.14-2.13,1.37c-0.27,0.23-1.33,4.78-1.33,4.78s3.2-2.5,3.2-1.82c0,0.68-4,3.64-4,3.87s-0.8,5.69-0.8,6.38
								c0,0.68,4-2.73,4-2.28c0,0.46-3.73,2.5-4,3.42s-1.33,4.78-1.33,5.24c0,0.46,20.77-0.91,20.77-0.91s-1.6-7.06-2.66-7.51
								c-1.07-0.46-4-1.37-4-1.82c0-0.46,4.26,1.14,4.26,1.14s-1.6-7.97-2.4-8.65c-0.8-0.68-3.73-1.37-4-2.05
								c-0.27-0.68,4,1.37,4,1.37L1160.08,253.5z"/>
							<polygon class="st12" points="1161,263.76 1161,292.29 1162.11,292.38 							"/>
						</g>
					</g>
					<g>
						<g>
							<path class="st12" d="M1210.42,290.28c0.21-0.21,1.21,0.11,2.56,0.77c0.85-2.57,1.12-5.1,0.98-7.55
								c-1.9-1.28-3.11-2.4-2.83-2.68c0.21-0.21,1.25,0.13,2.65,0.82c-0.31-2.18-0.92-4.27-1.69-6.22c-2.42-1.53-4.09-2.98-3.78-3.3
								c0.21-0.21,1.26,0.13,2.67,0.83c-2.83-5.71-6.74-9.75-7.49-10.5c-0.02-0.02-0.04-0.04-0.06-0.06
								c-0.02,0.02-0.04,0.04-0.07,0.07c-0.77,0.76-4.76,4.89-7.59,10.71c1.62-0.45,2.78-0.62,2.93-0.37
								c0.19,0.32-1.42,1.25-3.76,2.21c-0.89,2.15-1.59,4.48-1.9,6.92c1.57-0.43,2.69-0.59,2.84-0.34c0.17,0.29-1.07,1.05-2.98,1.89
								c-0.14,2.41,0.11,4.9,0.93,7.43c1.32-0.34,2.24-0.44,2.37-0.22c0.14,0.23-0.64,0.77-1.95,1.41c0.49,1.24,1.12,2.49,1.91,3.73
								h14.54c0.73-1.14,1.32-2.28,1.79-3.42C1211.04,291.37,1210.19,290.51,1210.42,290.28z"/>
						</g>
					</g>
				</g>
				<g>
					<g>
						<g>
							<path class="st12" d="M1311.15,217.59c0.33,0.49-5.54,18.79-5.54,19.53s2.93-0.49,2.93,0s-1.95,0.49-2.93,1.48
								s-1.63,5.19-1.63,5.19s3.26-2.47,3.58-1.98c0.33,0.49-3.91,2.72-4.23,3.46c-0.33,0.74-1.63,7.42-1.63,7.42
								s4.88-2.97,4.88-2.22s-4.56,2.97-4.88,3.71s-1.95,7.42-1.95,7.42h28.33c0,0-3.26-9.39-3.91-9.64
								c-0.65-0.25-5.37-3.83-5.7-4.08c-0.33-0.25,2.93,0.74,4.23,1.73c1.3,0.99-1.95-10.14-2.61-10.14s-3.91-1.98-3.91-1.98
								s1.95,0.49,3.58,0.99C1321.4,238.97,1311.15,217.59,1311.15,217.59z"/>
							<polygon class="st12" points="1312.05,227.99 1312.05,261.58 1313.17,261.68 							"/>
						</g>
					</g>
					<g>
						<g>
							<path class="st12" d="M1295.32,223.37c0,0.23-4.53,17.08-4.26,17.53s2.4-0.68,2.13,0c-0.27,0.68-1.86,1.14-2.13,1.37
								c-0.27,0.23-1.33,4.78-1.33,4.78s3.2-2.5,3.2-1.82c0,0.68-4,3.64-4,3.87c0,0.23-0.8,5.69-0.8,6.38c0,0.68,4-2.73,4-2.28
								c0,0.46-3.73,2.5-4,3.42s-1.33,4.78-1.33,5.24c0,0.46,20.77-0.91,20.77-0.91s-1.6-7.06-2.66-7.51c-1.07-0.46-4-1.37-4-1.82
								c0-0.46,4.26,1.14,4.26,1.14s-1.6-7.97-2.4-8.65c-0.8-0.68-3.73-1.37-4-2.05c-0.27-0.68,4,1.37,4,1.37L1295.32,223.37z"/>
							<polygon class="st12" points="1296.24,233.63 1296.24,262.16 1297.35,262.25 							"/>
						</g>
					</g>
					<g>
						<g>
							<path class="st12" d="M1345.66,260.15c0.21-0.21,1.21,0.11,2.56,0.77c0.85-2.57,1.12-5.1,0.98-7.55
								c-1.9-1.28-3.11-2.4-2.83-2.68c0.21-0.21,1.25,0.13,2.65,0.82c-0.31-2.18-0.92-4.27-1.69-6.22c-2.42-1.53-4.09-2.98-3.78-3.3
								c0.21-0.21,1.26,0.13,2.67,0.83c-2.83-5.71-6.74-9.75-7.49-10.5c-0.02-0.02-0.04-0.04-0.06-0.06
								c-0.02,0.02-0.04,0.04-0.07,0.07c-0.77,0.76-4.76,4.89-7.59,10.71c1.62-0.45,2.78-0.62,2.93-0.37
								c0.19,0.32-1.42,1.25-3.76,2.21c-0.89,2.15-1.59,4.48-1.9,6.92c1.57-0.43,2.69-0.59,2.84-0.34c0.17,0.29-1.07,1.05-2.98,1.89
								c-0.14,2.41,0.11,4.9,0.93,7.43c1.32-0.34,2.24-0.44,2.37-0.22c0.14,0.23-0.64,0.77-1.95,1.41c0.49,1.24,1.12,2.49,1.91,3.73
								h14.54c0.73-1.14,1.32-2.28,1.79-3.42C1346.28,261.24,1345.43,260.39,1345.66,260.15z"/>
						</g>
					</g>
				</g>
			</g>
		</g>
		<g>
			<g>
				<path class="st13" d="M112.08,280.09c7.2,17.9,27.48,29.83,30.1,35.26c2.62,5.42-9.16,31.46,0,37.43
					c4.99,3.25,17.34,24.5,27.56,43.2c3.81-13.41,5-26.67,4.31-39.47c-10.2-7.27-16.72-13.6-15.25-15.16
					c1.13-1.2,6.73,0.73,14.26,4.63c-1.65-12.35-4.93-24.17-9.1-35.18c-13.03-8.64-22.03-16.85-20.33-18.65
					c1.14-1.21,6.8,0.76,14.4,4.71c-15.23-32.3-36.27-55.17-40.35-59.44c-0.12-0.13-0.23-0.24-0.32-0.34
					c-0.1,0.11-0.23,0.24-0.38,0.4c-0.73,0.76-2,2.13-3.68,4.02C110.61,255.02,108.34,270.78,112.08,280.09z"/>
				<path class="st14" d="M91.85,295.96c1.04,1.84-7.64,7.1-20.23,12.49c-4.8,12.14-8.55,25.34-10.24,39.17
					c8.45-2.44,14.49-3.31,15.27-1.93c0.93,1.64-5.77,5.96-16.05,10.68c-0.76,13.61,0.61,27.75,5,42.04
					c7.13-1.9,12.08-2.48,12.78-1.23c0.75,1.32-3.45,4.38-10.48,7.98c2.63,7.02,6.01,14.06,10.27,21.09h78.27
					c3.91-6.45,7.09-12.91,9.62-19.36c-7.73-5.91-12.31-10.74-11.06-12.07c1.11-1.17,6.49,0.65,13.78,4.38
					c0.34-1.08,0.66-2.16,0.96-3.24c-10.22-18.69-22.58-39.95-27.56-43.2c-9.16-5.97,2.62-32,0-37.43
					c-2.62-5.42-22.9-17.36-30.1-35.26c-3.74-9.31-1.47-25.07,1.21-38.59c-7.84,8.84-24.62,29.46-37.2,56.56
					C84.8,295.49,91.05,294.56,91.85,295.96z"/>
			</g>
			<polygon class="st15" points="115.35,266.36 115.35,467.19 121.78,467.77 			"/>
		</g>
		<g>
			<path class="st13" d="M1252.63,249.71c-5.6,9.2-42.91,31.79-70.97,47.92c4.08-11.14,8.3-20.42,9.96-20.42
				c4.36,0,26.15-11.28,26.15-11.28s-13.07,2.82-23.97,5.64c-10.9,2.82,57.75-119.16,57.75-119.16c-0.55,0.71,1.54,7.88,4.96,18.27
				C1257.6,204.73,1257.38,241.9,1252.63,249.71z"/>
			<path class="st14" d="M1268.98,263.81c0,2.82,13.08,2.82,19.61,8.46c6.54,5.64,10.9,29.61,10.9,29.61s-21.79-14.1-23.97-11.28
				c-2.18,2.82,26.15,15.51,28.33,19.74s10.9,42.31,10.9,42.31s-32.69-16.92-32.69-12.69c0,4.23,30.51,16.92,32.69,21.15
				c2.18,4.23,13.07,42.31,13.07,42.31h-189.59c0,0,21.79-53.59,26.15-55c4.36-1.41,35.96-21.86,38.14-23.27
				c2.18-1.41-19.61,4.23-28.33,9.87c-5.38,3.48,0.87-19.39,7.47-37.4c28.07-16.13,65.38-38.73,70.97-47.92
				c4.75-7.8,4.97-44.98,3.88-79.03c10.15,30.82,32.09,89.97,32.09,93.13C1288.6,268.04,1268.98,260.99,1268.98,263.81z"/>
			<polygon class="st16" points="1246.54,220.05 1246.54,411.67 1239.06,412.22 			"/>
		</g>
		<g>
			<g>
				<path class="st17" d="M1323.1,288.27c-18.16,12.26-49.32,75.63-49.32,75.63L1229,381.04c3.06-7.67,6.21-15.24,7.53-18.29
					c2.9-6.71,37.43-20.84,37.69-24.24c0.26-3.4-37.43,20.84-37.05,15.75c0.39-5.09,10.64-45.6,10.77-47.29
					c0.13-1.7,37.56-22.54,37.95-27.64c0.39-5.09-29.64,12.6-29.64,12.6s12.12-33.63,14.63-35.25s17.07-4.52,19.84-9.53
					s-16.94,2.82-19.07-0.66c-1.79-2.93,33.54-91.75,44.73-120.54c2.08-5.35,3.33-8.62,3.35-8.89l19.81,54.26
					C1338.09,223.86,1333.47,281.27,1323.1,288.27z"/>
				<path class="st14" d="M1340.14,257.36c2,5.18,27.83,11.17,34.59,16.51c6.76,5.34,16.55,65.26,16.55,65.26s-37.24-13.2-37.49-9.8
					c-0.26,3.4,25.45,11.09,34.72,14.81s19.58,56.85,19.58,56.85s-18.96,0.39-44.78,0.8c-55.22,0.89-141.85,1.91-141.67-0.4
					c0.14-1.85,3.69-11.17,7.36-20.35l44.78-17.14c0,0,31.16-63.37,49.32-75.63c10.37-7,14.99-64.41,16.45-116.94l35.58,97.45
					C1375.12,268.78,1338.14,252.19,1340.14,257.36z"/>
			</g>
			<polygon class="st15" points="1321.91,170.68 1302.86,421.15 1292.87,421.53 			"/>
		</g>
		<g>
			<path class="st13" d="M89.85,387.84c6.22,0.99,19.77,3.76,29.49,5.8c-4.56-15.45-10-32.8-11.7-33.61
				c-3.09-1.48-25.52-22.91-27.07-24.39c-1.55-1.48,13.92,4.43,20.11,10.35c6.19,5.91-9.28-60.6-12.38-60.6
				s-18.56-11.82-18.56-11.82s9.28,2.96,17.02,5.91c7.73,2.96-40.99-124.89-40.99-124.89c0.37,0.71-0.95,7.55-3.18,17.6
				c0.88,34.98,2.12,73.59,3.49,86C48.78,282.6,79.58,386.21,89.85,387.84z"/>
			<path class="st14" d="M33.39,271.35c0,2.96-9.28,2.96-13.92,8.87c-4.64,5.91-7.73,31.04-7.73,31.04s15.47-14.78,17.02-11.82
				c1.55,2.96-18.56,16.26-20.11,20.69s-7.73,44.34-7.73,44.34s23.2-17.74,23.2-13.3c0,4.43-21.66,17.74-23.2,22.17
				c-1.55,4.43-9.28,44.34-9.28,44.34h134.58c0,0-3.13-11.38-6.86-24.03c-9.72-2.04-23.27-4.81-29.49-5.8
				c-10.27-1.63-41.07-105.23-43.77-129.64c-1.37-12.41-2.61-51.03-3.49-86c-7.04,31.82-23.12,95.79-23.12,99.16
				C19.47,275.78,33.39,268.39,33.39,271.35z"/>
			<polygon class="st16" points="50.94,227.27 50.94,419.28 56.92,419.84 			"/>
		</g>
	</g>
</g>
</svg>
